{"asset":{"version":"2.0","generator":"THREE.GLTFExporter"},"scenes":[{"nodes":[0],"name":"AuxScene"}],"scene":0,"nodes":[{"mesh":0}],"bufferViews":[{"buffer":0,"byteOffset":0,"byteLength":11484,"target":34962,"byteStride":12},{"buffer":0,"byteOffset":11484,"byteLength":11484,"target":34962,"byteStride":12}],"buffers":[{"byteLength":22968,"uri":"data:application/octet-stream;base64,"}],"accessors":[{"bufferView":0,"componentType":5126,"count":957,"max":[46.600006103515625,14.600000381469727,40.600006103515625],"min":[-46.69999694824219,-1.7999999523162842,-52.70000076293945],"type":"VEC3"},{"bufferView":1,"componentType":5126,"count":957,"max":[0.06593804806470871,1,0.13187609612941742],"min":[-0.18711192905902863,0.9823386073112488,-0.13187609612941742],"type":"VEC3"}],"materials":[{"pbrMetallicRoughness":{"baseColorFactor":[0.5019607843137255,0.5019607843137255,0.5019607843137255,1],"metallicFactor":0,"roughnessFactor":1}}],"meshes":[{"primitives":[{"mode":4,"attributes":{"POSITION":0,"NORMAL":1},"material":0}]}]}